<svg
  xmlns="http://www.w3.org/2000/svg"
  viewBox="0 0 100 100"
  style="enable-background: new 0 0 100 100"
  xml:space="preserve"
>
  <path
    d="M89.3 14.3c-1.3 0-2.5.3-3.7.7C85 8.6 79.7 3.6 73.2 3.6c-3.3 0-6.3 1.3-8.5 3.4-2-4.2-6.2-7-11.1-7-4 0-7.5 1.9-9.8 4.9-2.7-3.5-7.1-5.5-12-4.7-6.1 1.1-10.3 6.8-10.3 13v22.5h-6.7C6.6 35.7 0 42.3 0 50.4c0 4.2 1.8 8.3 5 11.1L26.1 80c1.6 1.4 2.4 3.3 2.4 5.4V100h57.1V85.4c0-2.1.3-4.3.9-6.3l7.2-19.4C97.9 48.5 100 36.8 100 25c0-5.9-4.8-10.7-10.7-10.7"
    style="fill-rule: evenodd; clip-rule: evenodd"
  />
</svg>
