<svg id="Layer_1" xmlns="http://www.w3.org/2000/svg" viewBox="0 0 531 521">
	<path
		d="M265.1.8C118.7.8 0 119.5 0 266c0 117.1 76 216.5 181.3 251.6 13.2 2.5 18.1-5.8 18.1-12.8 0-6.3-.2-27.2-.4-49.4-73.8 16-89.3-31.3-89.3-31.3-12.1-30.6-29.4-38.8-29.4-38.8-24.1-16.5 1.8-16.1 1.8-16.1 26.6 1.9 40.6 27.3 40.6 27.3 23.6 40.5 62 28.8 77.2 22 2.4-17.1 9.2-28.8 16.8-35.5C157.9 376.5 96 353.7 96 252.1c0-28.9 10.4-52.6 27.3-71.2-2.8-6.7-11.8-33.6 2.6-70.2 0 0 22.3-7.1 72.9 27.2 21.2-5.9 43.8-8.8 66.4-8.9 22.5.1 45.2 3 66.4 8.9 50.6-34.3 72.8-27.2 72.8-27.2 14.4 36.5 5.4 63.5 2.6 70.2 17 18.6 27.3 42.2 27.3 71.2 0 101.8-62 124.3-121.1 130.8 9.5 8.2 18 24.4 18 49.1 0 35.5-.3 64-.3 72.8 0 7.1 4.8 15.3 18.2 12.7C454.4 482.4 530.3 383.1 530.3 266 530.3 119.5 411.6.8 265.1.8z"
		fill-rule="evenodd"
		clip-rule="evenodd"
	/>
	<path
		class="st1"
		d="M100.4 381.5c-.6 1.3-2.7 1.7-4.5.8-1.9-.9-3-2.7-2.4-4 .6-1.4 2.6-1.7 4.6-.8 1.9.9 3 2.7 2.3 4zm-3.2-2.4M111.2 393.5c-1.3 1.2-3.7.6-5.4-1.2-1.7-1.8-2.1-4.3-.8-5.5 1.3-1.2 3.7-.6 5.4 1.2 1.7 1.9 2.1 4.3.8 5.5zm-2.6-2.7M121.6 408.8c-1.6 1.1-4.3.1-5.9-2.3-1.6-2.4-1.6-5.2 0-6.3 1.6-1.1 4.3-.1 5.9 2.2 1.7 2.4 1.7 5.2 0 6.4zm0 0M135.9 423.5c-1.5 1.6-4.5 1.2-6.8-1-2.3-2.1-3-5.2-1.5-6.8 1.5-1.6 4.6-1.2 6.9 1 2.3 2.2 3 5.2 1.4 6.8zm0 0M155.7 432.1c-.6 2.1-3.6 3-6.6 2.1-3-.9-5-3.3-4.4-5.4.6-2.1 3.6-3.1 6.6-2.1 3.1.9 5 3.3 4.4 5.4zm0 0M177.4 433.7c.1 2.2-2.5 4-5.6 4-3.2.1-5.7-1.7-5.8-3.9 0-2.2 2.5-4 5.7-4.1 3.1 0 5.7 1.8 5.7 4zm0 0M197.6 430.2c.4 2.1-1.8 4.3-4.9 4.9-3.1.6-5.9-.8-6.3-2.9-.4-2.2 1.8-4.4 4.9-4.9 3.1-.5 5.9.8 6.3 2.9zm0 0"
	/>
</svg>
