<svg
  version="1.1"
  id="Layer_1"
  xmlns="http://www.w3.org/2000/svg"
  x="0"
  y="0"
  viewBox="0 0 100 100"
  style="enable-background: new 0 0 100 100"
  xml:space="preserve"
>
  <g id="logo_art">
    <path id="path50_2_" class="st0" d="m50 96.1 18.4-56.7H31.6L50 96.1z" />
    <path id="path66_6_" class="st1" d="M5.8 39.4.2 56.6c-.5 1.6 0 3.3 1.4 4.3L50 96.1 5.8 39.4z" />
    <path id="path74_2_" class="st0" d="M5.8 39.4h25.8L20.5 5.3c-.6-1.7-3-1.7-3.6 0L5.8 39.4z" />
    <path id="path82_6_" class="st1" d="m94.2 39.4 5.6 17.2c.5 1.6 0 3.3-1.4 4.3L50 96.1l44.2-56.7z" />
    <path id="path86_2_" class="st0" d="M94.2 39.4H68.4L79.5 5.3c.6-1.7 3-1.7 3.6 0l11.1 34.1z" />
    <path class="st2" d="m50 96.1 18.4-56.7h25.8zM50 96.1 5.8 39.4h25.8z" />
  </g>
</svg>
