<svg
  xmlns="http://www.w3.org/2000/svg"
  viewBox="0 0 100 100"
  style="enable-background: new 0 0 100 100"
  xml:space="preserve"
>
  <path
    d="M3.4 80c2.2-2.2 5.2-3.4 8.3-3.4 3.1 0 6.1 1.2 8.3 3.4 2.2 2.2 3.4 5.2 3.4 8.3 0 3.1-1.2 6.1-3.4 8.3-2.2 2.2-5.2 3.4-8.3 3.4-3.1 0-6.1-1.2-8.3-3.4C1.2 94.4 0 91.4 0 88.3s1.2-6.1 3.4-8.3zm88 19.7c-2.3 0-4.5-.9-6.1-2.5-1.6-1.6-2.5-3.8-2.5-6.1 0-9.9-2-19.7-5.8-28.8-5.6-13.4-15.1-24.8-27.2-32.8-12.1-8-26.3-12.3-40.8-12.3-2.3 0-4.5-.9-6.1-2.5C1.3 13.1.4 10.9.4 8.6s.9-4.5 2.5-6.1C4.5.9 6.7 0 9 0c12 0 23.8 2.3 34.9 6.9C55 11.5 65 18.2 73.4 26.7c8.5 8.5 15.2 18.5 19.8 29.5 4.6 11.1 6.9 22.9 6.9 34.9 0 2.3-.9 4.5-2.5 6.1s-3.9 2.5-6.2 2.5zm-37.9 0c-2.3 0-4.5-.9-6.1-2.5-1.6-1.6-2.5-3.8-2.5-6.1 0-6.3-1.7-12.5-4.8-18-3.2-5.5-7.7-10-13.2-13.2-5.5-3.2-11.7-4.8-18-4.8-3.1 0-5.9-1.6-7.5-4.3a8.78 8.78 0 0 1 0-8.6C3 39.6 5.9 37.9 9 37.9c10.4 0 20.7 3.1 29.4 8.9 8.7 5.8 15.5 14 19.6 23.6 2.8 6.5 4.2 13.6 4.2 20.7 0 2.3-.9 4.5-2.5 6.1-1.7 1.6-3.9 2.5-6.2 2.5z"
  />
</svg>
