<svg
  xmlns="http://www.w3.org/2000/svg"
  viewBox="0 0 100 100"
  style="enable-background: new 0 0 100 100"
  xml:space="preserve"
>
  <path
    d="M33.3 0C14.9 0 0 14.9 0 33.3v33.3C0 85.1 14.9 100 33.3 100h33.3c18.4 0 33.3-14.9 33.3-33.3V33.3C100 14.9 85.1 0 66.7 0H33.3zm24.6 31c-1.5 1.5-1.5 3.9 0 5.4L71.5 50 57.9 63.6c-1.5 1.5-1.5 3.9 0 5.4 1.5 1.5 3.9 1.5 5.4 0l16.3-16.3c1.5-1.5 1.5-3.9 0-5.4L63.3 31c-1.5-1.5-3.9-1.5-5.4 0zm-15.8 0c1.5 1.5 1.5 3.9 0 5.4L28.5 50l13.6 13.6c1.5 1.5 1.5 3.9 0 5.4-1.5 1.5-3.9 1.5-5.4 0L20.4 52.7c-1.5-1.5-1.5-3.9 0-5.4L36.7 31c1.5-1.5 3.9-1.5 5.4 0z"
    style="fill-rule: evenodd; clip-rule: evenodd"
  />
</svg>
