<svg
  xmlns="http://www.w3.org/2000/svg"
  viewBox="0 0 100 100"
  style="enable-background: new 0 0 100 100"
  xml:space="preserve"
>
  <path
    d="M50 0C22.4 0 0 22.4 0 50s22.4 50 50 50 50-22.4 50-50S77.6 0 50 0zm0 95.4C24.9 95.4 4.6 75.1 4.6 50S24.9 4.6 50 4.6 95.4 24.9 95.4 50 75.1 95.4 50 95.4z"
  />
  <path
    d="m83.7 47.5-9.3-9.4c-1.5-1.5-3.6 0-3.6 2.6v4.4H54.9V29.2h4.4c2.6 0 4.1-2.1 2.6-3.6l-9.4-9.3c-1.3-1.2-3.9-1.2-5.1 0L38 25.6c-1.5 1.5 0 3.6 2.6 3.6H45v15.9H29.2v-4.4c0-2.6-2.1-4.1-3.6-2.6l-9.3 9.4c-1.2 1.3-1.2 3.9 0 5.1l9.3 9.4c1.5 1.5 3.6 0 3.6-2.6v-4.5h15.9v15.9h-4.4c-2.6 0-4.1 2.1-2.6 3.6l9.4 9.3c1.3 1.2 3.9 1.2 5.1 0l9.4-9.3c1.5-1.5 0-3.6-2.6-3.6H55V54.9h15.9v4.5c0 2.6 2.1 4.1 3.6 2.6l9.3-9.4c1.1-1.3 1.1-3.9-.1-5.1z"
  />
</svg>
