<svg
  xmlns="http://www.w3.org/2000/svg"
  viewBox="0 0 100 100"
  style="enable-background: new 0 0 100 100"
  xml:space="preserve"
>
  <path
    d="M50 0C22.4 0 0 22.4 0 50s22.4 50 50 50 50-22.4 50-50S77.6 0 50 0zm33.4 51.4-8 8c-.4.4-.9.6-1.4.6-.5 0-1-.2-1.4-.6-.8-.8-.8-2 0-2.8l4.6-4.6H52v25.2l4.6-4.6c.8-.8 2-.8 2.8 0 .8.8.8 2 0 2.8l-8 8c-.4.4-.9.6-1.4.6-.5 0-1-.2-1.4-.6l-8-8c-.8-.8-.8-2 0-2.8.8-.8 2-.8 2.8 0l4.6 4.6V52H22.8l4.6 4.6c.8.8.8 2 0 2.8-.4.4-.9.6-1.4.6-.5 0-1-.2-1.4-.6l-8-8c-.8-.8-.8-2 0-2.8l8-8c.8-.8 2-.8 2.8 0 .8.8.8 2 0 2.8L22.8 48H48V22.8l-4.6 4.6c-.8.8-2 .8-2.8 0-.8-.8-.8-2 0-2.8l8-8c.8-.8 2-.8 2.8 0l8 8c.8.8.8 2 0 2.8-.4.4-.9.6-1.4.6-.5 0-1-.2-1.4-.6L52 22.8V48h25.2l-4.6-4.6c-.8-.8-.8-2 0-2.8.8-.8 2-.8 2.8 0l8 8c.8.8.8 2 0 2.8z"
  />
</svg>
